<svg id="OBJECT" viewBox="0 0 512 512" xmlns="http://www.w3.org/2000/svg"><defs><style>.cls-1{fill:#bddbff;}.cls-2{fill:#3d9ae2;}.cls-3{fill:#fff;}</style></defs><title/><path class="cls-1" d="M431,432.75H269l-188,35V47.5a40,40,0,0,1,40-40H431Z"/><path class="cls-2" d="M81,475.25a7.5,7.5,0,0,1-7.5-7.5V47.5A47.56,47.56,0,0,1,121,0H431a7.5,7.5,0,0,1,7.5,7.5V432.75a7.5,7.5,0,0,1-7.5,7.5H269.69L82.37,475.12A7,7,0,0,1,81,475.25ZM121,15A32.54,32.54,0,0,0,88.5,47.5V458.72l179.13-33.34a7,7,0,0,1,1.37-.13H423.5V15Z"/><path class="cls-3" d="M395.42,467.75h0A36.75,36.75,0,0,1,431,431v0H117.75A36.75,36.75,0,0,0,81,467.75h0a36.75,36.75,0,0,0,36.75,36.75H431v0A36.75,36.75,0,0,1,395.42,467.75Z"/><path class="cls-2" d="M431,512H117.75a44.25,44.25,0,0,1,0-88.5H431a7.52,7.52,0,0,1,.24,15,29.23,29.23,0,0,0,0,58.44,7.52,7.52,0,0,1-.24,15ZM117.75,438.5a29.25,29.25,0,0,0,0,58.5H398.87a44.54,44.54,0,0,1,0-58.5Z"/><rect class="cls-3" height="120" rx="20" ry="20" width="240" x="136" y="81"/><path class="cls-2" d="M356,208.5H156A27.54,27.54,0,0,1,128.5,181V101A27.54,27.54,0,0,1,156,73.5H356A27.54,27.54,0,0,1,383.5,101v80A27.54,27.54,0,0,1,356,208.5ZM156,88.5A12.52,12.52,0,0,0,143.5,101v80A12.52,12.52,0,0,0,156,193.5H356A12.52,12.52,0,0,0,368.5,181V101A12.52,12.52,0,0,0,356,88.5Z"/></svg>