<svg width="24" height="24" viewBox="0 0 24 24" fill="none" xmlns="http://www.w3.org/2000/svg">
<path d="M17.5 4.5C15.55 4.5 13.45 4.9 12 6C10.55 4.9 8.45 4.5 6.5 4.5C5.05 4.5 3.51 4.72 2.22 5.29C1.49 5.62 1 6.33 1 7.14V18.42C1 19.72 2.22 20.68 3.48 20.36C4.46 20.11 5.5 20 6.5 20C8.06 20 9.72 20.26 11.06 20.92C11.66 21.22 12.34 21.22 12.93 20.92C14.27 20.25 15.93 20 17.49 20C18.49 20 19.53 20.11 20.51 20.36C21.77 20.69 22.99 19.73 22.99 18.42V7.14C22.99 6.33 22.5 5.62 21.77 5.29C20.49 4.72 18.95 4.5 17.5 4.5ZM21 17.23C21 17.86 20.42 18.32 19.8 18.21C19.05 18.07 18.27 18.01 17.5 18.01C15.8 18.01 13.35 18.66 12 19.51V8C13.35 7.15 15.8 6.5 17.5 6.5C18.42 6.5 19.33 6.59 20.2 6.78C20.66 6.88 21 7.29 21 7.76V17.23Z" fill="url(#paint0_linear_15_47)"/>
<path d="M13.98 11.01C13.66 11.01 13.37 10.81 13.27 10.49C13.14 10.1 13.36 9.66998 13.75 9.54998C15.29 9.04998 17.28 8.88998 19.11 9.09998C19.52 9.14998 19.82 9.51998 19.77 9.92998C19.72 10.34 19.35 10.64 18.94 10.59C17.32 10.4 15.55 10.55 14.21 10.98C14.13 10.99 14.05 11.01 13.98 11.01Z" fill="url(#paint1_linear_15_47)"/>
<path d="M13.7475 14.0001C13.4275 14.0001 13.1375 13.8001 13.0375 13.4801C12.9075 13.0901 13.1275 12.6601 13.5175 12.5401C15.0575 12.0401 17.0475 11.8801 18.8775 12.0901C19.2875 12.1401 19.5875 12.5101 19.5375 12.9201C19.4875 13.3301 19.1175 13.6301 18.7075 13.5801C17.0875 13.3901 15.3175 13.5401 13.9775 13.9701C13.8975 13.9801 13.8175 14.0001 13.7475 14.0001Z" fill="url(#paint2_linear_15_47)"/>
<path d="M13.7475 17.0001C13.4275 17.0001 13.1375 16.8001 13.0375 16.4801C12.9075 16.0901 13.1275 15.6601 13.5175 15.5401C15.0575 15.0401 17.0475 14.8801 18.8775 15.0901C19.2875 15.1401 19.5875 15.5101 19.5375 15.9201C19.4875 16.3301 19.1175 16.6301 18.7075 16.5801C17.0875 16.3901 15.3175 16.5401 13.9775 16.9701C13.8975 16.9801 13.8175 17.0001 13.7475 17.0001Z" fill="url(#paint3_linear_15_47)"/>
<defs>
<linearGradient id="paint0_linear_15_47" x1="11.995" y1="4.5" x2="11.995" y2="21.145" gradientUnits="userSpaceOnUse">
<stop stop-color="#A1C4E5"/>
<stop offset="0.46875" stop-color="#367DE8"/>
<stop offset="0.994792" stop-color="#0044AB"/>
</linearGradient>
<linearGradient id="paint1_linear_15_47" x1="16.504" y1="9.00989" x2="16.504" y2="11.01" gradientUnits="userSpaceOnUse">
<stop stop-color="#A1C4E5"/>
<stop offset="0.479167" stop-color="#367DE8"/>
<stop offset="1" stop-color="#0044AB"/>
</linearGradient>
<linearGradient id="paint2_linear_15_47" x1="16.2715" y1="12" x2="16.2715" y2="14.0001" gradientUnits="userSpaceOnUse">
<stop stop-color="#A1C4E5"/>
<stop offset="0.479167" stop-color="#367DE8"/>
<stop offset="1" stop-color="#0044AB"/>
</linearGradient>
<linearGradient id="paint3_linear_15_47" x1="16.2715" y1="15" x2="16.2715" y2="17.0001" gradientUnits="userSpaceOnUse">
<stop stop-color="#A1C4E5"/>
<stop offset="0.479167" stop-color="#367DE8"/>
<stop offset="1" stop-color="#0044AB"/>
</linearGradient>
</defs>
</svg>
