<svg width="321" height="40" viewBox="0 0 321 40" fill="none" xmlns="http://www.w3.org/2000/svg">
<path d="M7.992 5.736V32.76H20.952L20.136 39H0.12V5.736H7.992ZM32.1694 13.512V39H24.5854V13.512H32.1694ZM28.3294 0.0719976C29.6414 0.0719976 30.7134 0.487998 31.5454 1.32C32.4094 2.12 32.8414 3.144 32.8414 4.392C32.8414 5.64 32.4094 6.68 31.5454 7.512C30.7134 8.312 29.6414 8.712 28.3294 8.712C27.0174 8.712 25.9454 8.312 25.1134 7.512C24.2814 6.68 23.8654 5.64 23.8654 4.392C23.8654 3.144 24.2814 2.12 25.1134 1.32C25.9454 0.487998 27.0174 0.0719976 28.3294 0.0719976ZM53.0603 12.696C55.2683 12.696 56.9963 13.368 58.2443 14.712C59.4923 16.056 60.1163 17.944 60.1163 20.376V39H52.5323V21.672C52.5323 20.392 52.3243 19.512 51.9083 19.032C51.5243 18.52 50.9323 18.264 50.1323 18.264C48.5963 18.264 47.1243 19.368 45.7163 21.576V39H38.1323V13.512H44.7563L45.2843 16.536C46.3723 15.256 47.5403 14.296 48.7883 13.656C50.0683 13.016 51.4923 12.696 53.0603 12.696ZM76.8754 12.696C78.6354 12.696 80.2194 12.952 81.6274 13.464C83.0354 13.976 84.3634 14.76 85.6114 15.816L82.3474 20.328C80.7474 19.112 79.1314 18.504 77.4994 18.504C75.8034 18.504 74.5234 19.128 73.6594 20.376C72.7954 21.624 72.3634 23.64 72.3634 26.424C72.3634 29.112 72.7954 31.016 73.6594 32.136C74.5234 33.256 75.7714 33.816 77.4034 33.816C78.2674 33.816 79.0514 33.688 79.7554 33.432C80.4594 33.144 81.3074 32.696 82.2994 32.088L85.6114 36.792C83.0834 38.808 80.2194 39.816 77.0194 39.816C74.4274 39.816 72.1874 39.272 70.2994 38.184C68.4114 37.064 66.9554 35.512 65.9314 33.528C64.9074 31.512 64.3954 29.16 64.3954 26.472C64.3954 23.784 64.9074 21.4 65.9314 19.32C66.9554 17.24 68.4114 15.624 70.2994 14.472C72.1874 13.288 74.3794 12.696 76.8754 12.696ZM98.9066 12.696C102.811 12.696 105.867 13.896 108.075 16.296C110.283 18.664 111.387 21.992 111.387 26.28C111.387 29 110.875 31.384 109.851 33.432C108.859 35.448 107.419 37.016 105.531 38.136C103.675 39.256 101.467 39.816 98.9066 39.816C95.0346 39.816 91.9786 38.632 89.7386 36.264C87.5306 33.864 86.4266 30.52 86.4266 26.232C86.4266 23.512 86.9226 21.144 87.9146 19.128C88.9386 17.08 90.3786 15.496 92.2346 14.376C94.1226 13.256 96.3466 12.696 98.9066 12.696ZM98.9066 18.264C97.3706 18.264 96.2186 18.92 95.4506 20.232C94.6826 21.512 94.2986 23.512 94.2986 26.232C94.2986 29.016 94.6666 31.048 95.4026 32.328C96.1706 33.608 97.3386 34.248 98.9066 34.248C100.443 34.248 101.595 33.608 102.363 32.328C103.131 31.016 103.515 29 103.515 26.28C103.515 23.496 103.131 21.464 102.363 20.184C101.627 18.904 100.475 18.264 98.9066 18.264ZM130.826 12.696C133.034 12.696 134.762 13.368 136.01 14.712C137.258 16.056 137.882 17.944 137.882 20.376V39H130.298V21.672C130.298 20.392 130.09 19.512 129.674 19.032C129.29 18.52 128.698 18.264 127.898 18.264C126.362 18.264 124.89 19.368 123.482 21.576V39H115.898V13.512H122.522L123.05 16.536C124.138 15.256 125.306 14.296 126.554 13.656C127.834 13.016 129.258 12.696 130.826 12.696ZM180.048 5.736L170.784 39H160.992L151.392 5.736H159.696L166.032 32.856L171.984 5.736H180.048ZM189.951 13.512V39H182.367V13.512H189.951ZM186.111 0.0719976C187.423 0.0719976 188.495 0.487998 189.327 1.32C190.191 2.12 190.623 3.144 190.623 4.392C190.623 5.64 190.191 6.68 189.327 7.512C188.495 8.312 187.423 8.712 186.111 8.712C184.799 8.712 183.727 8.312 182.895 7.512C182.063 6.68 181.647 5.64 181.647 4.392C181.647 3.144 182.063 2.12 182.895 1.32C183.727 0.487998 184.799 0.0719976 186.111 0.0719976ZM210.842 12.696C213.05 12.696 214.778 13.368 216.026 14.712C217.274 16.056 217.898 17.944 217.898 20.376V39H210.314V21.672C210.314 20.392 210.106 19.512 209.69 19.032C209.306 18.52 208.714 18.264 207.914 18.264C206.378 18.264 204.906 19.368 203.498 21.576V39H195.914V13.512H202.538L203.066 16.536C204.154 15.256 205.322 14.296 206.57 13.656C207.85 13.016 209.274 12.696 210.842 12.696ZM231.201 13.512V39H223.617V13.512H231.201ZM227.361 0.0719976C228.673 0.0719976 229.745 0.487998 230.577 1.32C231.441 2.12 231.873 3.144 231.873 4.392C231.873 5.64 231.441 6.68 230.577 7.512C229.745 8.312 228.673 8.712 227.361 8.712C226.049 8.712 224.977 8.312 224.145 7.512C223.313 6.68 222.897 5.64 222.897 4.392C222.897 3.144 223.313 2.12 224.145 1.32C224.977 0.487998 226.049 0.0719976 227.361 0.0719976ZM248.204 12.696C249.964 12.696 251.548 12.952 252.956 13.464C254.364 13.976 255.692 14.76 256.94 15.816L253.676 20.328C252.076 19.112 250.46 18.504 248.828 18.504C247.132 18.504 245.852 19.128 244.988 20.376C244.124 21.624 243.692 23.64 243.692 26.424C243.692 29.112 244.124 31.016 244.988 32.136C245.852 33.256 247.1 33.816 248.732 33.816C249.596 33.816 250.38 33.688 251.084 33.432C251.788 33.144 252.636 32.696 253.628 32.088L256.94 36.792C254.412 38.808 251.548 39.816 248.348 39.816C245.756 39.816 243.516 39.272 241.628 38.184C239.74 37.064 238.284 35.512 237.26 33.528C236.236 31.512 235.724 29.16 235.724 26.472C235.724 23.784 236.236 21.4 237.26 19.32C238.284 17.24 239.74 15.624 241.628 14.472C243.516 13.288 245.708 12.696 248.204 12.696ZM267.716 13.512V39H260.132V13.512H267.716ZM263.876 0.0719976C265.188 0.0719976 266.26 0.487998 267.092 1.32C267.956 2.12 268.388 3.144 268.388 4.392C268.388 5.64 267.956 6.68 267.092 7.512C266.26 8.312 265.188 8.712 263.876 8.712C262.564 8.712 261.492 8.312 260.66 7.512C259.828 6.68 259.412 5.64 259.412 4.392C259.412 3.144 259.828 2.12 260.66 1.32C261.492 0.487998 262.564 0.0719976 263.876 0.0719976ZM295.183 39H288.607L288.271 35.784C286.415 38.472 283.839 39.816 280.543 39.816C278.207 39.816 276.431 39.112 275.215 37.704C274.031 36.296 273.439 34.328 273.439 31.8V13.512H281.023V30.84C281.023 32.088 281.215 32.968 281.599 33.48C282.015 33.96 282.639 34.2 283.471 34.2C285.071 34.2 286.447 33.208 287.599 31.224V13.512H295.183V39ZM310.124 12.696C311.948 12.696 313.66 12.968 315.26 13.512C316.86 14.056 318.268 14.824 319.484 15.816L316.7 20.088C314.62 18.776 312.524 18.12 310.412 18.12C309.42 18.12 308.652 18.296 308.108 18.648C307.596 18.968 307.34 19.432 307.34 20.04C307.34 20.52 307.452 20.92 307.676 21.24C307.932 21.528 308.428 21.832 309.164 22.152C309.9 22.472 311.036 22.856 312.572 23.304C315.228 24.072 317.196 25.08 318.476 26.328C319.788 27.544 320.444 29.24 320.444 31.416C320.444 33.144 319.948 34.648 318.956 35.928C317.964 37.176 316.604 38.136 314.876 38.808C313.148 39.48 311.228 39.816 309.116 39.816C306.972 39.816 304.972 39.48 303.116 38.808C301.292 38.136 299.74 37.208 298.46 36.024L302.156 31.896C304.3 33.56 306.556 34.392 308.924 34.392C310.076 34.392 310.972 34.184 311.612 33.768C312.284 33.352 312.62 32.76 312.62 31.992C312.62 31.384 312.492 30.904 312.236 30.552C311.98 30.2 311.484 29.88 310.748 29.592C310.012 29.272 308.844 28.888 307.244 28.44C304.716 27.704 302.828 26.68 301.58 25.368C300.332 24.056 299.708 22.424 299.708 20.472C299.708 19 300.124 17.688 300.956 16.536C301.82 15.352 303.036 14.424 304.604 13.752C306.204 13.048 308.044 12.696 310.124 12.696Z" fill="#141414"/>
</svg>
